<?xml version="1.0" encoding="utf-8"?>
<!-- Generator: Adobe Illustrator 17.0.0, SVG Export Plug-In . SVG Version: 6.00 Build 0)  -->
<!DOCTYPE svg PUBLIC "-//W3C//DTD SVG 1.1//EN" "http://www.w3.org/Graphics/SVG/1.1/DTD/svg11.dtd">
<svg version="1.1" id="Layer_1" xmlns="http://www.w3.org/2000/svg" xmlns:xlink="http://www.w3.org/1999/xlink" x="0px" y="0px"
	 width="1000px" height="1000px" viewBox="0 0 1000 1000" enable-background="new 0 0 1000 1000" xml:space="preserve">
<g>
	<path fill="#369BC2" d="M492.651,225.515c-40.691,0-72.34,31.649-72.34,72.34c0,40.691,33.156,72.34,72.34,72.34
		c40.691,0,72.34-31.649,72.34-72.34C564.991,257.164,533.342,225.515,492.651,225.515z M492.651,353.616
		c-31.649,0-55.762-24.113-55.762-55.762c0-31.649,25.62-55.762,55.762-55.762c31.649,0,55.762,24.113,55.762,55.762
		S524.3,353.616,492.651,353.616z"/>
	<path fill="#369BC2" d="M645.304,460.501c3.93-32.297,5.592-65.821,5.592-99.348c0-197.429-67.819-352.66-155.231-352.66
		s-156.738,155.231-155.231,352.66c0,35.655,2.223,69.242,6.363,100.368l-1.841-2.407L197.261,564.61v194.415l99.468-99.468h126.596
		v-1.2c21.458,22.448,46.008,34.665,72.34,34.665c26.889,0,52.217-10.963,74.378-33.465h121.544l99.468,99.468V564.61
		L645.304,460.501z M495.665,41.649c32.288,0,60.072,33.628,81.075,84.397H414.092C435.293,75.277,463.377,41.649,495.665,41.649z
		 M280.151,630.838l-51.241,49.818v-99.468l51.241-36.438V630.838z M287.686,627.908v-88.516l64.234-45.677
		c10.237,54.833,26.862,100.48,48.025,134.193H287.686z M495.665,661.373c-72.341,0-123.582-146.496-123.582-298.713
		c0-80.97,14.5-166.629,38.961-229.079h168.715c24.238,62.45,38.686,148.109,39.488,229.079c0,43.706-3.015,85.905-10.55,126.596
		C589.105,602.288,542.385,661.373,495.665,661.373z M700.63,627.908H594.444c19.544-31.78,35.24-75.482,45.458-131.701
		l60.728,43.185V627.908z M759.406,680.656l-51.241-49.818V544.75l51.241,36.438V680.656z"/>
	<path fill="#369BC2" d="M540.285,796.45c0,0,17.541,76.716-41.579,101.305c-59.12-24.589-41.579-101.305-41.579-101.305
		C346.684,879.684,498.706,992,498.706,992S650.728,879.684,540.285,796.45z"/>
	<path fill="#369BC2" d="M576.052,724.648l1.263-55.75c0,0-22.089,41.579-83.157,41.579s-83.157-41.579-83.157-41.579v48.312
		c0,0,23.388,41.815,83.157,41.815S576.052,724.648,576.052,724.648z"/>
	<path fill="#369BC2" d="M498.706,847.993c0,0,59.936-44.282,16.393-77.097c0,0,6.916,30.246-16.393,39.94
		c-23.308-9.694-16.393-39.94-16.393-39.94C438.77,803.712,498.706,847.993,498.706,847.993z"/>
</g>
</svg>
